<svg width="156" height="98" viewBox="0 0 156 98" fill="none" xmlns="http://www.w3.org/2000/svg">
<g clip-path="url(#clip0_174_4)">
<mask id="mask0_174_4" style="mask-type:luminance" maskUnits="userSpaceOnUse" x="-25" y="-53" width="205" height="205">
<path d="M139 -53H16C-6.64367 -53 -25 -34.6437 -25 -12V111C-25 133.644 -6.64367 152 16 152H139C161.644 152 180 133.644 180 111V-12C180 -34.6437 161.644 -53 139 -53Z" fill="white"/>
</mask>
<g mask="url(#mask0_174_4)">
<mask id="mask1_174_4" style="mask-type:luminance" maskUnits="userSpaceOnUse" x="-1" y="9" width="148" height="90">
<path d="M-0.400002 9.36792H146.517V98.0243H-0.400002V9.36792Z" fill="white"/>
</mask>
<g mask="url(#mask1_174_4)">
<g opacity="0.57">
<path d="M146.517 53.5892C146.517 29.1661 126.66 9.36792 102.164 9.36792H43.9524C19.4573 9.36792 -0.400002 29.1661 -0.400002 53.5892V97.8104H102.164C126.66 97.8104 146.517 78.0122 146.517 53.5892Z" fill="#EEF1FF"/>
<path d="M43.9524 25.9524H102.164C117.474 25.9524 129.884 38.3262 129.884 53.5905C129.884 68.8541 117.474 81.2286 102.164 81.2286H43.9524C28.6432 81.2286 16.2323 68.8541 16.2323 53.5905C16.2323 38.3262 28.6432 25.9524 43.9524 25.9524Z" fill="#A3AFFE"/>
<path d="M102.164 67.4069C94.5095 67.4069 88.3042 61.22 88.3042 53.5878C88.3042 45.9557 94.5095 39.7688 102.164 39.7688C109.819 39.7688 116.024 45.9557 116.024 53.5878C116.024 61.22 109.819 67.4069 102.164 67.4069Z" fill="black"/>
<path d="M107.709 50.8237C106.177 50.8237 104.937 49.5869 104.937 48.0603C104.937 46.5338 106.177 45.2963 107.709 45.2963C109.239 45.2963 110.48 46.5338 110.48 48.0603C110.48 49.5869 109.239 50.8237 107.709 50.8237Z" fill="#EEF1FF"/>
<path d="M41.1799 67.4069C33.5255 67.4069 27.3203 61.22 27.3203 53.5878C27.3203 45.9557 33.5255 39.7688 41.1799 39.7688C48.8348 39.7688 55.0402 45.9557 55.0402 53.5878C55.0402 61.22 48.8348 67.4069 41.1799 67.4069Z" fill="black"/>
<path d="M46.724 50.8237C45.1934 50.8237 43.9524 49.5869 43.9524 48.0603C43.9524 46.5338 45.1934 45.2963 46.724 45.2963C48.2554 45.2963 49.4963 46.5338 49.4963 48.0603C49.4963 49.5869 48.2554 50.8237 46.724 50.8237Z" fill="#EEF1FF"/>
</g>
</g>
<mask id="mask2_174_4" style="mask-type:luminance" maskUnits="userSpaceOnUse" x="8" y="0" width="148" height="89">
<path d="M8.66777 0.300049H155.584V88.9564H8.66777V0.300049Z" fill="white"/>
</mask>
<g mask="url(#mask2_174_4)">
<path d="M155.584 44.5213C155.584 20.0983 135.728 0.300049 111.232 0.300049H53.0203C28.525 0.300049 8.66777 20.0983 8.66777 44.5213V88.7425H111.232C135.728 88.7425 155.584 68.9443 155.584 44.5213Z" fill="#EEF1FF"/>
<path d="M53.0203 16.8839H111.232C126.541 16.8839 138.952 29.2584 138.952 44.5227C138.952 59.7863 126.541 72.1608 111.232 72.1608H53.0203C37.711 72.1608 25.3 59.7863 25.3 44.5227C25.3 29.2584 37.711 16.8839 53.0203 16.8839Z" fill="#A3AFFE"/>
<path d="M111.232 58.3389C103.577 58.3389 97.372 52.152 97.372 44.5199C97.372 36.8877 103.577 30.7008 111.232 30.7008C118.887 30.7008 125.092 36.8877 125.092 44.5199C125.092 52.152 118.887 58.3389 111.232 58.3389Z" fill="black"/>
<path d="M116.777 41.7565C115.245 41.7565 114.004 40.5197 114.004 38.9931C114.004 37.4665 115.245 36.229 116.777 36.229C118.307 36.229 119.548 37.4665 119.548 38.9931C119.548 40.5197 118.307 41.7565 116.777 41.7565Z" fill="#EEF1FF"/>
<path d="M50.2473 58.3389C42.5933 58.3389 36.3881 52.152 36.3881 44.5199C36.3881 36.8877 42.5933 30.7008 50.2473 30.7008C57.9027 30.7008 64.108 36.8877 64.108 44.5199C64.108 52.152 57.9027 58.3389 50.2473 58.3389Z" fill="black"/>
<path d="M55.7919 41.7565C54.2612 41.7565 53.0203 40.5197 53.0203 38.9931C53.0203 37.4665 54.2612 36.229 55.7919 36.229C57.3232 36.229 58.5641 37.4665 58.5641 38.9931C58.5641 40.5197 57.3232 41.7565 55.7919 41.7565Z" fill="#EEF1FF"/>
</g>
</g>
</g>
<defs>
<clipPath id="clip0_174_4">
<rect width="156" height="98" fill="white"/>
</clipPath>
</defs>
</svg>
