<svg width="205" height="205" viewBox="0 0 205 205" fill="none" xmlns="http://www.w3.org/2000/svg">
<g clip-path="url(#clip0_171_394)">
<mask id="mask0_171_394" style="mask-type:luminance" maskUnits="userSpaceOnUse" x="0" y="0" width="205" height="205">
<path d="M164 0H41C18.3563 0 0 18.3563 0 41V164C0 186.644 18.3563 205 41 205H164C186.644 205 205 186.644 205 164V41C205 18.3563 186.644 0 164 0Z" fill="white"/>
</mask>
<g mask="url(#mask0_171_394)">
<path d="M180.4 0H24.6C11.0138 0 0 11.0138 0 24.6V180.4C0 193.986 11.0138 205 24.6 205H180.4C193.986 205 205 193.986 205 180.4V24.6C205 11.0138 193.986 0 180.4 0Z" fill="#5955F4"/>
<mask id="mask1_171_394" style="mask-type:luminance" maskUnits="userSpaceOnUse" x="24" y="62" width="148" height="90">
<path d="M24.6 62.3679H171.517V151.024H24.6V62.3679Z" fill="white"/>
</mask>
<g mask="url(#mask1_171_394)">
<g opacity="0.57">
<path d="M171.517 106.589C171.517 82.1661 151.66 62.3679 127.164 62.3679H68.9524C44.4572 62.3679 24.6 82.1661 24.6 106.589V150.81H127.164C151.66 150.81 171.517 131.012 171.517 106.589Z" fill="#EEF1FF"/>
<path d="M68.9525 78.9524H127.164C142.474 78.9524 154.884 91.3262 154.884 106.59C154.884 121.854 142.474 134.229 127.164 134.229H68.9525C53.6433 134.229 41.2323 121.854 41.2323 106.59C41.2323 91.3262 53.6433 78.9524 68.9525 78.9524Z" fill="#A3AFFE"/>
<path d="M127.164 120.407C119.51 120.407 113.304 114.22 113.304 106.588C113.304 98.9557 119.51 92.7688 127.164 92.7688C134.819 92.7688 141.024 98.9557 141.024 106.588C141.024 114.22 134.819 120.407 127.164 120.407Z" fill="black"/>
<path d="M132.709 103.824C131.177 103.824 129.937 102.587 129.937 101.06C129.937 99.5338 131.177 98.2963 132.709 98.2963C134.239 98.2963 135.48 99.5338 135.48 101.06C135.48 102.587 134.239 103.824 132.709 103.824Z" fill="#EEF1FF"/>
<path d="M66.1799 120.407C58.5255 120.407 52.3203 114.22 52.3203 106.588C52.3203 98.9557 58.5255 92.7688 66.1799 92.7688C73.8349 92.7688 80.0402 98.9557 80.0402 106.588C80.0402 114.22 73.8349 120.407 66.1799 120.407Z" fill="black"/>
<path d="M71.724 103.824C70.1933 103.824 68.9524 102.587 68.9524 101.06C68.9524 99.5338 70.1933 98.2963 71.724 98.2963C73.2553 98.2963 74.4963 99.5338 74.4963 101.06C74.4963 102.587 73.2553 103.824 71.724 103.824Z" fill="#EEF1FF"/>
</g>
</g>
<mask id="mask2_171_394" style="mask-type:luminance" maskUnits="userSpaceOnUse" x="33" y="53" width="148" height="89">
<path d="M33.6677 53.3H180.584V141.956H33.6677V53.3Z" fill="white"/>
</mask>
<g mask="url(#mask2_171_394)">
<path d="M180.584 97.5213C180.584 73.0983 160.727 53.3 136.232 53.3H78.0202C53.525 53.3 33.6677 73.0983 33.6677 97.5213V141.743H136.232C160.727 141.743 180.584 121.944 180.584 97.5213Z" fill="#EEF1FF"/>
<path d="M78.0203 69.8839H136.232C151.541 69.8839 163.952 82.2584 163.952 97.5227C163.952 112.786 151.541 125.161 136.232 125.161H78.0203C62.711 125.161 50.3 112.786 50.3 97.5227C50.3 82.2584 62.711 69.8839 78.0203 69.8839Z" fill="#A3AFFE"/>
<path d="M136.232 111.339C128.577 111.339 122.372 105.152 122.372 97.5199C122.372 89.8877 128.577 83.7008 136.232 83.7008C143.887 83.7008 150.092 89.8877 150.092 97.5199C150.092 105.152 143.887 111.339 136.232 111.339Z" fill="black"/>
<path d="M141.777 94.7565C140.245 94.7565 139.004 93.5197 139.004 91.9931C139.004 90.4665 140.245 89.229 141.777 89.229C143.307 89.229 144.548 90.4665 144.548 91.9931C144.548 93.5197 143.307 94.7565 141.777 94.7565Z" fill="#EEF1FF"/>
<path d="M75.2473 111.339C67.5933 111.339 61.3881 105.152 61.3881 97.5199C61.3881 89.8877 67.5933 83.7008 75.2473 83.7008C82.9027 83.7008 89.108 89.8877 89.108 97.5199C89.108 105.152 82.9027 111.339 75.2473 111.339Z" fill="black"/>
<path d="M80.7919 94.7565C79.2612 94.7565 78.0203 93.5197 78.0203 91.9931C78.0203 90.4665 79.2612 89.229 80.7919 89.229C82.3232 89.229 83.5641 90.4665 83.5641 91.9931C83.5641 93.5197 82.3232 94.7565 80.7919 94.7565Z" fill="#EEF1FF"/>
</g>
</g>
</g>
<defs>
<clipPath id="clip0_171_394">
<rect width="205" height="205" fill="white"/>
</clipPath>
</defs>
</svg>
