<svg width="462" height="121" viewBox="0 0 462 121" fill="none" xmlns="http://www.w3.org/2000/svg">
<path d="M0.254395 110.5V40.8371H10.5503L11.6633 56.0056H12.2198C14.5388 50.9494 16.8112 47.2509 19.0374 44.9101C21.2635 42.4756 23.8143 40.9307 26.6897 40.2753C29.6579 39.5262 33.3218 39.1517 37.6812 39.1517V51.5112H34.6203C30.9101 51.5112 27.6173 52.0262 24.7418 53.0562C21.8664 53.9925 19.5012 55.397 17.646 57.2697C15.791 59.142 14.3532 61.53 13.3329 64.433C12.4054 67.242 11.9416 70.566 11.9416 74.404V110.5H0.254395ZM46.371 110.5V40.8371H58.058V110.5H46.371ZM52.214 26.9326C49.895 26.9326 47.947 26.1367 46.371 24.5449C44.794 22.9531 44.005 20.9869 44.005 18.6461C44.005 16.3989 44.794 14.4794 46.371 12.8876C47.947 11.2959 49.895 10.5 52.214 10.5C54.44 10.5 56.342 11.2959 57.919 12.8876C59.495 14.4794 60.284 16.4457 60.284 18.7865C60.284 21.0337 59.495 22.9531 57.919 24.5449C56.342 26.1367 54.44 26.9326 52.214 26.9326ZM91.348 110.5L66.582 40.8371H78.826L98.583 101.09H99.139L119.035 40.8371H131L106.235 110.5H91.348ZM157.11 110.5L132.344 40.8371H144.588L164.345 101.09H164.901L184.797 40.8371H196.763L171.997 110.5H157.11ZM205.341 110.5V40.8371H217.028V110.5H205.341ZM211.185 26.9326C208.866 26.9326 206.918 26.1367 205.341 24.5449C203.765 22.9531 202.976 20.9869 202.976 18.6461C202.976 16.3989 203.765 14.4794 205.341 12.8876C206.918 11.2959 208.866 10.5 211.185 10.5C213.411 10.5 215.313 11.2959 216.889 12.8876C218.466 14.4794 219.254 16.4457 219.254 18.7865C219.254 21.0337 218.466 22.9531 216.889 24.5449C215.313 26.1367 213.411 26.9326 211.185 26.9326Z" fill="#5955F4"/>
<mask id="mask0_177_15" style="mask-type:luminance" maskUnits="userSpaceOnUse" x="269" y="11" width="182" height="110">
<path d="M269.254 11.3922H450.556V120.798H269.254V11.3922Z" fill="white"/>
</mask>
<g mask="url(#mask0_177_15)">
<g opacity="0.57">
<path d="M450.556 65.963C450.556 35.824 426.051 11.3922 395.823 11.3922H323.987C293.759 11.3922 269.254 35.824 269.254 65.963V120.534H395.823C426.051 120.534 450.556 96.102 450.556 65.963Z" fill="#5955F4"/>
<path d="M323.987 31.8579H395.823C414.715 31.8579 430.031 47.1277 430.031 65.965C430.031 84.8 414.715 100.071 395.823 100.071H323.987C305.095 100.071 289.779 84.8 289.779 65.965C289.779 47.1277 305.095 31.8579 323.987 31.8579Z" fill="#A3AFFE"/>
<path d="M395.823 83.015C386.377 83.015 378.719 75.38 378.719 65.961C378.719 56.5429 386.377 48.908 395.823 48.908C405.269 48.908 412.927 56.5429 412.927 65.961C412.927 75.38 405.269 83.015 395.823 83.015Z" fill="black"/>
<path d="M402.665 62.551C400.775 62.551 399.244 61.024 399.244 59.141C399.244 57.2568 400.775 55.7296 402.665 55.7296C404.554 55.7296 406.085 57.2568 406.085 59.141C406.085 61.024 404.554 62.551 402.665 62.551Z" fill="#5955F4"/>
<path d="M320.566 83.015C311.12 83.015 303.462 75.38 303.462 65.961C303.462 56.5429 311.12 48.908 320.566 48.908C330.012 48.908 337.67 56.5429 337.67 65.961C337.67 75.38 330.012 83.015 320.566 83.015Z" fill="black"/>
<path d="M327.407 62.551C325.519 62.551 323.987 61.024 323.987 59.141C323.987 57.2568 325.519 55.7296 327.407 55.7296C329.297 55.7296 330.829 57.2568 330.829 59.141C330.829 61.024 329.297 62.551 327.407 62.551Z" fill="#5955F4"/>
</g>
</g>
<mask id="mask1_177_15" style="mask-type:luminance" maskUnits="userSpaceOnUse" x="280" y="0" width="182" height="110">
<path d="M280.444 0.202148H461.746V109.608H280.444V0.202148Z" fill="white"/>
</mask>
<g mask="url(#mask1_177_15)">
<path d="M461.746 54.7731C461.746 24.6341 437.241 0.202148 407.013 0.202148H335.177C304.949 0.202148 280.444 24.6341 280.444 54.7731V109.344H407.013C437.241 109.344 461.746 84.912 461.746 54.7731Z" fill="#5955F4"/>
<path d="M335.177 20.6676H407.013C425.906 20.6676 441.221 35.9377 441.221 54.7745C441.221 73.6101 425.906 88.8811 407.013 88.8811H335.177C316.285 88.8811 300.969 73.6101 300.969 54.7745C300.969 35.9377 316.285 20.6676 335.177 20.6676Z" fill="#A3AFFE"/>
<path d="M407.013 71.825C397.567 71.825 389.909 64.19 389.909 54.7713C389.909 45.3529 397.567 37.718 407.013 37.718C416.459 37.718 424.117 45.3529 424.117 54.7713C424.117 64.19 416.459 71.825 407.013 71.825Z" fill="black"/>
<path d="M413.855 51.3609C411.965 51.3609 410.434 49.8346 410.434 47.9508C410.434 46.0669 411.965 44.5398 413.855 44.5398C415.744 44.5398 417.275 46.0669 417.275 47.9508C417.275 49.8346 415.744 51.3609 413.855 51.3609Z" fill="#EEF1FF"/>
<path d="M331.755 71.825C322.31 71.825 314.652 64.19 314.652 54.7713C314.652 45.3529 322.31 37.718 331.755 37.718C341.202 37.718 348.86 45.3529 348.86 54.7713C348.86 64.19 341.202 71.825 331.755 71.825Z" fill="black"/>
<path d="M338.598 51.3609C336.709 51.3609 335.177 49.8346 335.177 47.9508C335.177 46.0669 336.709 44.5398 338.598 44.5398C340.487 44.5398 342.019 46.0669 342.019 47.9508C342.019 49.8346 340.487 51.3609 338.598 51.3609Z" fill="#EEF1FF"/>
</g>
</svg>
