<svg width="219" height="100" viewBox="0 0 219 100" fill="none" xmlns="http://www.w3.org/2000/svg">
<path d="M0 100V30.3371H10.2959L11.4089 45.5056H11.9654C14.2844 40.4494 16.5568 36.7509 18.783 34.4101C21.0091 31.9756 23.5599 30.4307 26.4353 29.7753C29.4035 29.0262 33.0674 28.6517 37.4268 28.6517V41.0112H34.3659C30.6557 41.0112 27.3629 41.5262 24.4874 42.5562C21.612 43.4925 19.2468 44.897 17.3916 46.7697C15.5366 48.642 14.0988 51.03 13.0785 53.933C12.151 56.742 11.6872 60.066 11.6872 63.904V100H0ZM46.1166 100V30.3371H57.8036V100H46.1166ZM51.9596 16.4326C49.6406 16.4326 47.6926 15.6367 46.1166 14.0449C44.5396 12.4531 43.7506 10.4869 43.7506 8.1461C43.7506 5.8989 44.5396 3.9794 46.1166 2.3876C47.6926 0.7959 49.6406 0 51.9596 0C54.1856 0 56.0876 0.7959 57.6646 2.3876C59.2406 3.9794 60.0296 5.9457 60.0296 8.2865C60.0296 10.5337 59.2406 12.4531 57.6646 14.0449C56.0876 15.6367 54.1856 16.4326 51.9596 16.4326ZM91.0936 100L66.3276 30.3371H78.5716L98.3286 90.59H98.8846L118.781 30.3371H130.746L105.981 100H91.0936ZM156.856 100L132.09 30.3371H144.334L164.091 90.59H164.647L184.543 30.3371H196.509L171.743 100H156.856ZM205.087 100V30.3371H216.774V100H205.087ZM210.931 16.4326C208.612 16.4326 206.664 15.6367 205.087 14.0449C203.511 12.4531 202.722 10.4869 202.722 8.1461C202.722 5.8989 203.511 3.9794 205.087 2.3876C206.664 0.7959 208.612 0 210.931 0C213.157 0 215.059 0.7959 216.635 2.3876C218.212 3.9794 219 5.9457 219 8.2865C219 10.5337 218.212 12.4531 216.635 14.0449C215.059 15.6367 213.157 16.4326 210.931 16.4326Z" fill="#5955F4"/>
</svg>
