<svg width="155" height="97" viewBox="0 0 155 97" fill="none" xmlns="http://www.w3.org/2000/svg">
<g clip-path="url(#clip0_174_31)">
<mask id="mask0_174_31" style="mask-type:luminance" maskUnits="userSpaceOnUse" x="-25" y="-54" width="205" height="205">
<path d="M139 -54H16C-6.64367 -54 -25 -35.6437 -25 -13V110C-25 132.644 -6.64367 151 16 151H139C161.644 151 180 132.644 180 110V-13C180 -35.6437 161.644 -54 139 -54Z" fill="white"/>
</mask>
<g mask="url(#mask0_174_31)">
<mask id="mask1_174_31" style="mask-type:luminance" maskUnits="userSpaceOnUse" x="-1" y="8" width="148" height="89">
<path d="M-0.400002 8.18335H146.517V96.8397H-0.400002V8.18335Z" fill="white"/>
</mask>
<g mask="url(#mask1_174_31)">
<g opacity="0.57">
<path d="M146.517 52.4046C146.517 27.9816 126.66 8.18335 102.164 8.18335H43.9524C19.4573 8.18335 -0.400002 27.9816 -0.400002 52.4046V96.6258H102.164C126.66 96.6258 146.517 76.8276 146.517 52.4046Z" fill="#5955F4"/>
<path d="M43.9524 24.7665H102.164C117.474 24.7665 129.884 37.1403 129.884 52.4046C129.884 67.6682 117.474 80.0427 102.164 80.0427H43.9524C28.6432 80.0427 16.2322 67.6682 16.2322 52.4046C16.2322 37.1403 28.6432 24.7665 43.9524 24.7665Z" fill="#A3AFFE"/>
<path d="M102.164 66.2237C94.5095 66.2237 88.3042 60.0368 88.3042 52.4046C88.3042 44.7725 94.5095 38.5856 102.164 38.5856C109.819 38.5856 116.024 44.7725 116.024 52.4046C116.024 60.0368 109.819 66.2237 102.164 66.2237Z" fill="black"/>
<path d="M107.709 49.6405C106.177 49.6405 104.937 48.4037 104.937 46.8771C104.937 45.3506 106.177 44.113 107.709 44.113C109.239 44.113 110.48 45.3506 110.48 46.8771C110.48 48.4037 109.239 49.6405 107.709 49.6405Z" fill="#5955F4"/>
<path d="M41.1798 66.2237C33.5255 66.2237 27.3202 60.0368 27.3202 52.4046C27.3202 44.7725 33.5255 38.5856 41.1798 38.5856C48.8349 38.5856 55.0402 44.7725 55.0402 52.4046C55.0402 60.0368 48.8349 66.2237 41.1798 66.2237Z" fill="black"/>
<path d="M46.724 49.6405C45.1934 49.6405 43.9524 48.4037 43.9524 46.8771C43.9524 45.3506 45.1934 44.113 46.724 44.113C48.2554 44.113 49.4963 45.3506 49.4963 46.8771C49.4963 48.4037 48.2554 49.6405 46.724 49.6405Z" fill="#5955F4"/>
</g>
</g>
<mask id="mask2_174_31" style="mask-type:luminance" maskUnits="userSpaceOnUse" x="7" y="-1" width="148" height="90">
<path d="M7.8 -0.0167236H154.717V88.6396H7.8V-0.0167236Z" fill="white"/>
</mask>
<g mask="url(#mask2_174_31)">
<path d="M154.717 44.2045C154.717 19.7815 134.86 -0.0167236 110.364 -0.0167236H52.1524C27.6573 -0.0167236 7.8 19.7815 7.8 44.2045V88.4257H110.364C134.86 88.4257 154.717 68.6275 154.717 44.2045Z" fill="#5955F4"/>
<path d="M52.1524 16.5664H110.364C125.674 16.5664 138.084 28.9402 138.084 44.2045C138.084 59.4681 125.674 71.8426 110.364 71.8426H52.1524C36.8432 71.8426 24.4322 59.4681 24.4322 44.2045C24.4322 28.9402 36.8432 16.5664 52.1524 16.5664Z" fill="#A3AFFE"/>
<path d="M110.364 58.0236C102.71 58.0236 96.5042 51.8367 96.5042 44.2046C96.5042 36.5724 102.71 30.3855 110.364 30.3855C118.019 30.3855 124.224 36.5724 124.224 44.2046C124.224 51.8367 118.019 58.0236 110.364 58.0236Z" fill="black"/>
<path d="M115.909 41.4405C114.377 41.4405 113.137 40.2036 113.137 38.677C113.137 37.1505 114.377 35.913 115.909 35.913C117.439 35.913 118.68 37.1505 118.68 38.677C118.68 40.2036 117.439 41.4405 115.909 41.4405Z" fill="white"/>
<path d="M49.3795 58.0236C41.7254 58.0236 35.5202 51.8367 35.5202 44.2046C35.5202 36.5724 41.7254 30.3855 49.3795 30.3855C57.0348 30.3855 63.2402 36.5724 63.2402 44.2046C63.2402 51.8367 57.0348 58.0236 49.3795 58.0236Z" fill="black"/>
<path d="M54.924 41.4405C53.3934 41.4405 52.1524 40.2036 52.1524 38.677C52.1524 37.1505 53.3934 35.913 54.924 35.913C56.4554 35.913 57.6963 37.1505 57.6963 38.677C57.6963 40.2036 56.4554 41.4405 54.924 41.4405Z" fill="white"/>
</g>
</g>
</g>
<defs>
<clipPath id="clip0_174_31">
<rect width="155" height="97" fill="white"/>
</clipPath>
</defs>
</svg>
