<svg width="205" height="205" viewBox="0 0 205 205" fill="none" xmlns="http://www.w3.org/2000/svg">
<g clip-path="url(#clip0_171_422)">
<mask id="mask0_171_422" style="mask-type:luminance" maskUnits="userSpaceOnUse" x="0" y="0" width="205" height="205">
<path d="M164 0H41C18.3563 0 0 18.3563 0 41V164C0 186.644 18.3563 205 41 205H164C186.644 205 205 186.644 205 164V41C205 18.3563 186.644 0 164 0Z" fill="white"/>
</mask>
<g mask="url(#mask0_171_422)">
<path d="M180.4 0H24.6C11.0138 0 0 11.0138 0 24.6V180.4C0 193.986 11.0138 205 24.6 205H180.4C193.986 205 205 193.986 205 180.4V24.6C205 11.0138 193.986 0 180.4 0Z" fill="white"/>
<mask id="mask1_171_422" style="mask-type:luminance" maskUnits="userSpaceOnUse" x="24" y="62" width="148" height="89">
<path d="M24.6 62.1833H171.517V150.84H24.6V62.1833Z" fill="white"/>
</mask>
<g mask="url(#mask1_171_422)">
<g opacity="0.57">
<path d="M171.517 106.405C171.517 81.9816 151.66 62.1833 127.164 62.1833H68.9524C44.4572 62.1833 24.6 81.9816 24.6 106.405V150.626H127.164C151.66 150.626 171.517 130.828 171.517 106.405Z" fill="#5955F4"/>
<path d="M68.9524 78.7665H127.164C142.474 78.7665 154.884 91.1403 154.884 106.405C154.884 121.668 142.474 134.043 127.164 134.043H68.9524C53.6431 134.043 41.2322 121.668 41.2322 106.405C41.2322 91.1403 53.6431 78.7665 68.9524 78.7665Z" fill="#A3AFFE"/>
<path d="M127.164 120.224C119.51 120.224 113.304 114.037 113.304 106.405C113.304 98.7725 119.51 92.5856 127.164 92.5856C134.819 92.5856 141.024 98.7725 141.024 106.405C141.024 114.037 134.819 120.224 127.164 120.224Z" fill="black"/>
<path d="M132.709 103.641C131.177 103.641 129.937 102.404 129.937 100.877C129.937 99.3506 131.177 98.113 132.709 98.113C134.239 98.113 135.48 99.3506 135.48 100.877C135.48 102.404 134.239 103.641 132.709 103.641Z" fill="#5955F4"/>
<path d="M66.1798 120.224C58.5254 120.224 52.3202 114.037 52.3202 106.405C52.3202 98.7725 58.5254 92.5856 66.1798 92.5856C73.8348 92.5856 80.0402 98.7725 80.0402 106.405C80.0402 114.037 73.8348 120.224 66.1798 120.224Z" fill="black"/>
<path d="M71.724 103.641C70.1933 103.641 68.9524 102.404 68.9524 100.877C68.9524 99.3506 70.1933 98.113 71.724 98.113C73.2553 98.113 74.4963 99.3506 74.4963 100.877C74.4963 102.404 73.2553 103.641 71.724 103.641Z" fill="#5955F4"/>
</g>
</g>
<mask id="mask2_171_422" style="mask-type:luminance" maskUnits="userSpaceOnUse" x="32" y="53" width="148" height="90">
<path d="M32.8 53.9833H179.717V142.64H32.8V53.9833Z" fill="white"/>
</mask>
<g mask="url(#mask2_171_422)">
<path d="M179.717 98.2045C179.717 73.7815 159.86 53.9833 135.364 53.9833H77.1525C52.6573 53.9833 32.8 73.7815 32.8 98.2045V142.426H135.364C159.86 142.426 179.717 122.628 179.717 98.2045Z" fill="#5955F4"/>
<path d="M77.1525 70.5664H135.364C150.674 70.5664 163.084 82.9402 163.084 98.2045C163.084 113.468 150.674 125.843 135.364 125.843H77.1525C61.8432 125.843 49.4323 113.468 49.4323 98.2045C49.4323 82.9402 61.8432 70.5664 77.1525 70.5664Z" fill="#A3AFFE"/>
<path d="M135.364 112.024C127.71 112.024 121.504 105.837 121.504 98.2046C121.504 90.5724 127.71 84.3855 135.364 84.3855C143.019 84.3855 149.224 90.5724 149.224 98.2046C149.224 105.837 143.019 112.024 135.364 112.024Z" fill="black"/>
<path d="M140.909 95.4405C139.378 95.4405 138.137 94.2036 138.137 92.677C138.137 91.1505 139.378 89.913 140.909 89.913C142.44 89.913 143.68 91.1505 143.68 92.677C143.68 94.2036 142.44 95.4405 140.909 95.4405Z" fill="white"/>
<path d="M74.3795 112.024C66.7255 112.024 60.5203 105.837 60.5203 98.2046C60.5203 90.5724 66.7255 84.3855 74.3795 84.3855C82.0349 84.3855 88.2402 90.5724 88.2402 98.2046C88.2402 105.837 82.0349 112.024 74.3795 112.024Z" fill="black"/>
<path d="M79.9241 95.4405C78.3934 95.4405 77.1525 94.2036 77.1525 92.677C77.1525 91.1505 78.3934 89.913 79.9241 89.913C81.4554 89.913 82.6963 91.1505 82.6963 92.677C82.6963 94.2036 81.4554 95.4405 79.9241 95.4405Z" fill="white"/>
</g>
</g>
</g>
<defs>
<clipPath id="clip0_171_422">
<rect width="205" height="205" fill="white"/>
</clipPath>
</defs>
</svg>
